<svg preserveAspectRatio="none" width="100%" height="100%" overflow="visible" style="display: block;" viewBox="0 0 36 36" fill="none" xmlns="http://www.w3.org/2000/svg">
<g id="token-branded:binance">
<path id="Vector" d="M9.7755 18L6.3915 21.384L3 18L6.384 14.616L9.7755 18ZM18 9.7755L23.805 15.5805L27.1875 12.1965L18 3L8.805 12.195L12.1875 15.579L18 9.7755ZM29.6085 14.616L26.2245 18L29.6085 21.384L32.991 18L29.6085 14.616ZM18 26.2245L12.195 20.4195L8.8125 23.8035L18 33L27.1875 23.805L23.8035 20.421L18 26.2245ZM18 21.384L21.384 18L18 14.616L14.6085 18L18 21.384Z" fill="var(--fill-0, #F0B90B)"/>
</g>
</svg>
