<svg preserveAspectRatio="none" width="100%" height="100%" overflow="visible" style="display: block;" viewBox="0 0 27 27.5408" fill="none" xmlns="http://www.w3.org/2000/svg">
<g id="Group 1328">
<path id="Vector" d="M9.27122 0.755227C12.2829 -0.27869 15.5578 -0.250253 18.551 0.835807C20.1949 1.45119 21.701 2.38521 22.9829 3.58425C22.5474 4.05031 22.0878 4.48588 21.6436 4.93887C20.7986 5.78242 19.9543 6.62307 19.1107 7.46081C18.2697 6.65661 17.2525 6.06 16.1401 5.71854C14.7167 5.28872 13.2023 5.25929 11.7632 5.63347C10.324 6.00766 9.01579 6.771 7.98194 7.83976C7.07951 8.7578 6.39609 9.8678 5.98268 11.0869L1.468 7.59148C3.08398 4.38692 5.88195 1.93567 9.27122 0.755227Z" fill="var(--fill-0, #E33629)"/>
<path id="Vector_2" d="M0.270047 11.0526C0.512705 9.84994 0.915568 8.6853 1.46786 7.58979L5.98253 11.0939C5.39193 12.8332 5.39193 14.7187 5.98253 16.458C4.47837 17.6195 2.97348 18.7868 1.46786 19.9599C0.0852578 17.2078 -0.336412 14.0721 0.270047 11.0526Z" fill="var(--fill-0, #F8BD00)"/>
<path id="Vector_3" d="M13.7752 11.1941H26.7377C27.1811 13.6266 27.0611 16.1284 26.3871 18.5073C25.7669 20.6949 24.5622 22.6721 22.9025 24.2263C21.4455 23.0895 19.982 21.9614 18.525 20.8246C19.2474 20.3373 19.8639 19.7093 20.3377 18.978C20.8115 18.2468 21.1327 17.4274 21.2822 16.569H13.7752C13.773 14.7789 13.7752 12.9865 13.7752 11.1941Z" fill="var(--fill-0, #587DBD)"/>
<path id="Vector_4" d="M1.46596 19.961C2.97158 18.7995 4.47647 17.6322 5.98063 16.4591C6.56257 18.1669 7.66935 19.6472 9.14286 20.6884C10.0619 21.338 11.1063 21.789 12.2093 22.0126C13.2961 22.2147 14.4109 22.2147 15.4978 22.0126C16.5815 21.8291 17.6149 21.4211 18.5316 20.8148C19.9885 21.9516 21.452 23.0797 22.909 24.2165C21.3146 25.6664 19.3709 26.6773 17.2684 27.1501C14.9477 27.6957 12.5292 27.6695 10.2209 27.0739C8.39521 26.5864 6.6899 25.7271 5.21185 24.5498C3.64742 23.3077 2.36967 21.7425 1.46596 19.961Z" fill="var(--fill-0, #319F43)"/>
</g>
</svg>
