<?xml version="1.0" encoding="UTF-8"?><svg id="Layer_1" xmlns="http://www.w3.org/2000/svg" xmlns:xlink="http://www.w3.org/1999/xlink" viewBox="0 0 260.98 227.53"><defs><style>.cls-1{fill:url(#linear-gradient);}.cls-2{fill:#bad659;}</style><linearGradient id="linear-gradient" x1="176.097" y1="159.32" x2="162.401" y2="112.327" gradientUnits="userSpaceOnUse"><stop offset="0" stop-color="#bad659"/><stop offset=".935" stop-color="#748b5a"/></linearGradient></defs><path class="cls-2" d="M26.635,61.768c-.044,40.189,29.692,63.884,61.194,64.13,15.478.121,28.947-4.556,39.024-12.217,10.303-7.659,17.445-18.304,20.039-29.895l-72.617-.566.17-21.854,103.805.809c-.083,10.7-2.018,25.255-7.808,37.73-15.741,33.344-50.701,49.917-82.572,49.668C38.273,149.187.014,110.81,0,61.777c0-.254,6.515-.49,13.318-.437,7.379.058,13.317.247,13.317.429Z"/><circle class="cls-2" cx="165.161" cy="23.372" r="23.372"/><circle class="cls-2" cx="240.408" cy="206.958" r="20.572"/><path class="cls-2" d="M147.855,90.928h-.584v1.433c.2-.476.401-.952.584-1.433Z"/><path class="cls-1" d="M175.856,100.515c-.304.719-.615,1.434-.943,2.141-3.618,7.664-8.261,14.431-13.639,20.323,7.882,6.484,22.542,22.262,21.393,49.257-1.151,27.034-19.362,51.68-21.635,54.655h32.135c7.331-12.965,15.818-32.313,16.723-53.567,1.751-41.129-22.722-64.332-34.034-72.808Z"/></svg>