<svg width="2778" height="700" viewBox="0 0 2778 700" fill="none" xmlns="http://www.w3.org/2000/svg">
<g clip-path="url(#clip0_338_108)">
<path d="M223.996 397.207H0L113.733 182.477L433.326 0L223.996 397.207Z" fill="#9CC9F1"/>
<path d="M428.741 466.194L65.02 700L275.69 296.462H518.537L428.741 466.194Z" fill="#9CC9F1"/>
<path d="M552.454 670.388C596.949 670.388 633.018 634.176 633.018 589.506C633.018 544.835 596.949 508.623 552.454 508.623C507.96 508.623 471.89 544.835 471.89 589.506C471.89 634.176 507.96 670.388 552.454 670.388Z" fill="#9CC9F1"/>
<path d="M769.803 190.316C769.803 104.459 823.592 46.1836 902.922 46.1836C964.838 46.1836 1005.47 70.2701 1022.88 121.942L962.515 133.207C952.067 109.507 932.718 98.6317 903.695 98.6317C859.97 98.6317 831.331 134.763 831.331 191.096C831.331 247.816 859.581 283.171 904.468 283.171C942.777 283.171 968.319 261.027 970.639 218.682H903.691V171.285H1033.33C1034.1 179.831 1034.1 187.601 1034.1 195.371C1034.1 282.005 983.795 334.843 901.756 334.843C821.265 334.843 769.8 278.124 769.8 190.32L769.803 190.316Z" fill="#9CC9F1"/>
<path d="M1063.45 232.275V109.51H1122.27V226.837C1122.27 267.24 1135.82 285.889 1170.25 285.889C1204.31 285.889 1217.47 264.132 1217.47 222.952V109.51H1276.29V331.73H1217.47V296.378C1207.79 320.465 1182.64 336.395 1149.36 336.395C1090.16 336.395 1063.45 302.202 1063.45 232.275Z" fill="#9CC9F1"/>
<path d="M1307.92 220.62C1307.92 146.028 1350.87 105.235 1405.82 105.235C1437.17 105.235 1465.41 120.776 1476.63 147.195V109.51H1535.45V331.344H1476.63V295.212C1465.8 320.855 1437.16 336.782 1406.21 336.782C1351.26 336.782 1307.92 295.212 1307.92 220.62ZM1478.57 220.62C1478.57 179.051 1455.35 154.185 1422.46 154.185C1389.95 154.185 1366.74 178.661 1366.74 220.62C1366.74 262.966 1389.95 287.442 1422.85 287.442C1455.35 287.442 1478.57 262.58 1478.57 220.62Z" fill="#9CC9F1"/>
<path d="M1575.83 109.51H1634.65V142.919C1642.39 122.328 1665.22 101.74 1709.34 106.788L1703.53 162.731C1659.42 154.571 1634.65 175.162 1634.65 226.834V331.73H1575.83L1575.83 109.51Z" fill="#9CC9F1"/>
<path d="M1714.91 220.62C1714.91 146.028 1757.86 105.235 1812.82 105.235C1844.16 105.235 1872.8 120.775 1883.63 147.194V37.2471H1942.45V331.34H1883.63V295.209C1872.79 320.851 1844.16 336.778 1813.2 336.778C1758.25 336.778 1714.91 295.212 1714.91 220.62ZM1885.57 220.62C1885.57 179.051 1862.35 154.185 1829.45 154.185C1796.95 154.185 1773.73 178.661 1773.73 220.62C1773.73 262.966 1796.95 287.442 1829.84 287.442C1862.74 287.442 1885.57 262.579 1885.57 220.62Z" fill="#9CC9F1"/>
<path d="M1978.8 50.8448C1978.8 31.4195 1993.12 20.9307 2012.47 20.9307C2030.65 20.9307 2046.13 31.4195 2046.13 50.8448C2046.13 69.88 2030.65 80.7588 2012.47 80.7588C1993.12 80.7588 1978.8 69.88 1978.8 50.8448ZM1983.06 109.51H2041.49V331.73H1983.06V109.51Z" fill="#9CC9F1"/>
<path d="M2070.7 220.62C2070.7 146.028 2113.66 105.235 2168.61 105.235C2199.95 105.235 2228.2 120.776 2239.42 147.195V109.51H2298.24V331.344H2239.42V295.212C2228.59 320.855 2199.95 336.782 2169 336.782C2114.05 336.782 2070.7 295.212 2070.7 220.62ZM2241.36 220.62C2241.36 179.051 2218.14 154.185 2185.25 154.185C2152.75 154.185 2129.53 178.661 2129.53 220.62C2129.53 262.966 2152.75 287.442 2185.64 287.442C2218.14 287.442 2241.36 262.58 2241.36 220.62Z" fill="#9CC9F1"/>
<path d="M2338.62 109.51H2397.44V145.252C2407.5 120.776 2432.27 105.235 2465.93 105.235C2525.14 105.235 2551.84 139.424 2551.84 209.352V331.73H2493.02V214.793C2493.02 174 2477.93 155.351 2445.04 155.351C2410.98 155.351 2397.44 177.109 2397.44 218.288V331.73H2338.62V109.51Z" fill="#9CC9F1"/>
<path d="M2571.74 275.011L2625.14 266.074C2633.27 283.557 2652.23 293.66 2677.39 293.66C2703.7 293.66 2718.79 284.723 2718.79 269.183C2718.79 224.895 2579.1 261.027 2579.87 172.061C2580.64 132.044 2620.11 105.625 2675.06 105.625C2720.73 105.625 2761.74 126.993 2772.58 161.568L2719.95 170.891C2713.38 155.741 2696.35 146.804 2676.61 146.804C2652.23 146.804 2637.92 155.351 2637.92 170.115C2637.92 214.403 2778 174.776 2778 263.742C2778 308.03 2738.91 335.615 2677 335.615C2622.05 335.615 2582.58 311.139 2571.74 275.011Z" fill="#9CC9F1"/>
<path d="M800.761 392.747H881.638C979.544 392.747 1017.08 423.051 1017.08 496.863C1017.08 570.289 979.544 599.817 883.188 599.817H861.904V674.019H800.765V392.743L800.761 392.747ZM892.471 545.816C935.811 545.816 954.775 531.828 954.775 495.7C954.775 459.959 935.815 445.971 892.471 445.971H861.901V545.816H892.471Z" fill="#9CC9F1"/>
<path d="M1053.58 451.798H1112.4V485.207C1120.14 464.616 1142.97 444.028 1187.08 449.076L1181.28 505.019C1137.17 496.859 1112.4 517.45 1112.4 569.122V674.018H1053.58V451.798Z" fill="#9CC9F1"/>
<path d="M1204.78 562.908C1204.78 494.534 1251.22 447.523 1318.16 447.523C1391.3 447.523 1434.26 498.805 1427.29 576.506H1263.6C1264.76 612.638 1286.43 633.615 1321.64 633.615C1346.8 633.615 1363.44 624.293 1371.56 606.034L1425.35 612.638C1409.48 655.763 1373.5 678.293 1320.09 678.293C1250.44 678.293 1204.77 632.453 1204.77 562.908H1204.78ZM1373.5 537.656C1371.17 508.128 1351.05 489.093 1319.71 489.093C1289.52 489.093 1268.24 506.185 1264.76 537.656H1373.5Z" fill="#9CC9F1"/>
<path d="M1460.81 562.908C1460.81 488.316 1503.76 447.523 1558.71 447.523C1590.06 447.523 1618.69 463.064 1629.53 489.483V379.535H1688.35V673.628H1629.53V637.497C1618.69 663.14 1590.06 679.066 1559.1 679.066C1504.15 679.066 1460.81 637.497 1460.81 562.905L1460.81 562.908ZM1631.46 562.908C1631.46 521.339 1608.25 496.473 1575.36 496.473C1542.85 496.473 1519.63 520.949 1519.63 562.908C1519.63 605.254 1542.85 629.73 1575.74 629.73C1608.63 629.73 1631.46 604.868 1631.46 562.908Z" fill="#9CC9F1"/>
<path d="M1737.86 393.133C1737.86 373.708 1752.18 363.219 1771.52 363.219C1789.71 363.219 1805.19 373.708 1805.19 393.133C1805.19 412.168 1789.71 423.047 1771.52 423.047C1752.18 423.047 1737.86 412.168 1737.86 393.133ZM1742.11 451.798H1800.54V674.018H1742.11V451.798Z" fill="#9CC9F1"/>
<path d="M1842.03 562.908C1842.03 494.92 1889.24 447.523 1953.48 447.523C2012.69 447.523 2048.68 474.329 2059.9 528.333L2008.43 536.489C1999.92 510.07 1982.51 496.473 1956.19 496.473C1923.3 496.473 1900.85 523.278 1900.85 562.908C1900.85 602.539 1923.3 628.954 1956.19 628.954C1980.96 628.954 2000.3 614.19 2007.66 589.327L2059.51 597.484C2049.45 649.156 2010.76 678.293 1953.48 678.293C1889.24 678.293 1842.04 630.897 1842.04 562.908H1842.03Z" fill="#9CC9F1"/>
<path d="M2113.31 585.443V496.477H2081.97V451.799H2113.31V411.782L2172.52 399.351V451.799H2232.89V496.477H2172.52V580.005C2172.52 617.689 2183.36 630.901 2212.38 630.901C2217.02 630.901 2222.05 630.124 2230.18 628.958L2237.92 673.636C2229.02 675.968 2213.93 677.521 2202.31 677.521C2141.95 677.521 2113.31 653.045 2113.31 585.446V585.443Z" fill="#9CC9F1"/>
</g>
<defs>
<clipPath id="clip0_338_108">
<rect width="2778" height="700" fill="white"/>
</clipPath>
</defs>
</svg>
